<?xml version="1.0" encoding="UTF-8"?>
<!DOCTYPE svg PUBLIC "-//W3C//DTD SVG 1.1//EN" "http://www.w3.org/Graphics/SVG/1.1/DTD/svg11.dtd">
<!-- Creator: CorelDRAW X8 -->
<svg xmlns="http://www.w3.org/2000/svg" xml:space="preserve" width="6.76746in" height="6.16582in" version="1.1" style="shape-rendering:geometricPrecision; text-rendering:geometricPrecision; image-rendering:optimizeQuality; fill-rule:evenodd; clip-rule:evenodd"
viewBox="0 0 476 434"
 xmlns:xlink="http://www.w3.org/1999/xlink">
 <defs>
  <style type="text/css">
   <![CDATA[
    .str0 {stroke:#FEFEFE;stroke-width:4.88334}
    .fil3 {fill:#FEFEFE}
    .fil1 {fill:#4B4B4D}
    .fil5 {fill:#FFCC29}
    .fil7 {fill:#86D5F7}
    .fil8 {fill:#0082C6}
    .fil0 {fill:#D9A51A}
    .fil4 {fill:#FEFEFE;fill-rule:nonzero}
    .fil2 {fill:#373435;fill-rule:nonzero}
    .fil6 {fill:#ACC73E;fill-rule:nonzero}
   ]]>
  </style>
 </defs>
 <g id="Layer_x0020_1">
  <metadata id="CorelCorpID_0Corel-Layer"/>
  <path class="fil0" d="M413 397l0 30c0,3 -3,7 -7,7l-336 0c-4,0 -7,-4 -7,-7l0 -30 350 0z"/>
  <path class="fil1" d="M24 285l428 0c4,0 7,3 7,7l0 98c0,4 -3,7 -7,7l-428 0c-4,0 -7,-3 -7,-7l0 -98c0,-4 3,-7 7,-7z"/>
  <g>
   <path class="fil2" d="M343 269l121 0c3,0 6,2 7,4 2,2 4,4 4,7l0 121c0,3 -2,6 -4,8 -1,2 -4,3 -7,3l-35 0c-1,2 -2,3 -4,3 -2,0 -4,-2 -4,-4 0,-2 2,-4 4,-4 1,0 3,1 3,2l36 0c2,0 4,-1 5,-2 2,-2 2,-4 2,-6l0 -121c0,-2 0,-4 -2,-5 -1,-2 -3,-2 -5,-2l-121 0c0,1 -1,2 -3,2 -2,0 -4,-2 -4,-4 0,-2 2,-4 4,-4 2,0 3,1 3,2zm-292 138c2,0 3,2 3,4 0,2 -1,4 -3,4 -2,0 -3,-1 -4,-3l-35 0c-3,0 -6,-1 -8,-3 -1,-2 -3,-5 -3,-8l0 -121c0,-3 2,-5 3,-7 2,-2 5,-4 8,-4l123 0c0,-1 1,-2 3,-2 2,0 4,2 4,4 0,2 -2,4 -4,4 -2,0 -3,-1 -3,-2l-123 0c-2,0 -4,0 -5,2 -2,1 -2,3 -2,5l0 121c0,2 0,4 2,6 1,1 3,2 5,2l36 0c0,-1 1,-2 3,-2z"/>
   <path id="1" class="fil2" d="M464 271l-121 0 0 -3 121 0 0 0 0 3zm8 1l-2 2 0 0 0 -1 0 0 0 0 0 0 0 0 -1 0 0 -1 0 0 0 0 0 0 0 0 -1 0 0 0 0 0 0 0 0 -1 -1 0 0 0 0 0 0 0 0 0 -1 0 0 0 0 0 0 0 -1 0 0 0 0 0 0 0 -1 0 0 0 0 0 0 -3 0 0 1 0 0 0 0 0 1 0 0 0 0 0 0 0 1 0 0 0 0 0 1 0 0 1 0 0 0 0 1 0 0 0 0 0 0 0 1 0 0 1 0 0 0 0 1 0 0 0 0 0 0 1 1 0 0 0 0 0 0 0 0 1 0 0zm4 8l-3 0 0 0 0 0 0 0 0 0 0 -1 0 0 0 0 0 0 0 -1 0 0 0 0 0 0 0 0 0 -1 0 0 0 0 -1 0 0 -1 0 0 0 0 0 0 0 0 0 -1 0 0 0 0 0 0 -1 0 0 -1 0 0 0 0 0 0 0 0 -1 0 2 -2 1 0 0 0 0 0 0 0 0 1 1 0 0 0 0 0 0 1 0 0 0 0 0 0 1 1 0 0 0 0 0 1 0 0 0 0 0 0 0 1 0 0 1 0 0 1 0 0 0 0 0 0 0 1 0 0 0 0 0 1 0 0 0 0 0 0zm-3 121l0 -121 3 0 0 121 0 0 -3 0zm-1 9l-2 -2 0 0 1 0 0 0 0 0 0 -1 0 0 0 0 1 0 0 0 0 -1 0 0 0 0 0 0 0 0 0 -1 0 0 0 0 1 0 0 0 0 -1 0 0 0 0 0 0 0 -1 0 0 0 0 0 0 0 0 0 -1 0 0 0 0 0 0 0 -1 3 0 0 1 0 0 0 0 0 1 0 0 0 0 0 1 0 0 0 0 0 0 -1 1 0 0 0 0 0 1 0 0 0 0 0 0 0 1 0 0 -1 0 0 0 0 1 0 0 0 0 0 1 0 0 -1 0 0 0 0 0 0 1 0 0 -1 0 0 0zm-8 4l0 -3 0 0 0 0 0 0 1 0 0 0 0 0 0 0 1 0 0 0 0 0 0 0 0 0 1 0 0 -1 0 0 0 0 1 0 0 0 0 0 0 0 0 0 1 0 0 0 0 -1 0 0 0 0 0 0 1 0 0 0 0 0 0 -1 0 0 0 0 2 2 0 0 0 1 0 0 0 0 -1 0 0 0 0 0 0 1 -1 0 0 0 0 0 0 0 -1 0 0 1 0 0 0 0 -1 0 0 0 0 0 0 0 -1 0 0 0 0 0 -1 1 0 0 0 0 0 0 -1 0 0 0 0 0 -1 0 0 0 0 0zm-35 -3l35 0 0 3 -35 0 -2 -2 2 -1zm-2 1l1 -1 1 0 -2 1zm-2 4l0 -3 0 0 0 0 0 0 0 0 0 0 1 0 0 0 0 0 0 0 0 0 0 0 0 0 0 0 0 0 0 0 0 0 0 0 0 0 1 0 0 0 0 0 0 0 0 0 0 0 0 -1 0 0 0 0 0 0 0 0 0 0 0 0 0 0 0 0 3 1 0 0 0 0 0 0 -1 1 0 0 0 0 0 0 0 0 0 0 0 1 0 0 0 0 -1 0 0 0 0 0 0 0 0 0 0 1 -1 0 0 0 0 0 0 0 0 0 0 0 -1 0 0 0 0 0 0 0 0 0 -1 0 0 0 0 0 0 0zm-5 -5l3 0 0 0 0 0 0 0 0 0 0 0 0 1 0 0 0 0 0 0 0 0 0 0 0 0 0 0 0 0 0 1 0 0 0 0 1 0 0 0 0 0 0 0 0 0 0 0 0 0 0 0 0 0 0 0 1 0 0 0 0 0 0 0 0 0 0 0 0 3 0 0 0 0 -1 0 0 0 0 0 0 0 -1 0 0 0 0 0 0 0 -1 -1 0 0 0 0 0 0 0 0 0 0 -1 0 0 -1 0 0 0 0 0 0 0 -1 0 0 -1 0 0 0 0 0 0 -1 0 0 0 0 0 0 0 -1 0 0 0 0zm5 -5l0 3 0 0 0 0 0 0 0 0 0 0 0 0 -1 0 0 0 0 0 0 0 0 0 0 0 0 0 0 0 0 0 0 0 -1 0 0 0 0 0 0 1 0 0 0 0 0 0 0 0 0 0 0 0 0 0 0 0 0 0 0 1 0 0 0 0 0 0 -3 0 0 0 0 -1 0 0 0 0 0 0 0 -1 0 0 0 0 1 0 0 -1 0 0 0 0 0 0 0 0 0 -1 1 0 0 0 0 0 0 0 0 0 0 -1 1 0 0 0 0 0 0 0 1 0 0 0 0 0 0 0 1 0 0 0 0 0 0 0zm3 2l0 2 -1 0 0 0 0 0 0 0 0 0 0 -1 0 0 0 0 0 0 0 0 0 0 0 0 0 0 -1 0 0 0 0 0 0 0 0 0 0 0 0 0 0 0 0 0 0 0 0 0 0 0 0 0 0 0 -1 0 0 0 0 0 0 0 0 0 0 0 0 -3 0 0 0 0 1 0 0 0 0 0 0 0 0 0 0 0 1 0 0 0 0 0 0 0 0 0 0 0 0 0 1 0 0 1 0 0 0 0 0 0 0 0 0 0 1 0 0 0 0 0 0 1 0 0 0 0 0 0 0 0 0 0 0 0 -1 0zm0 2l-1 0 0 0 1 0zm36 0l-36 0 0 -2 36 0 0 0 0 2zm4 -4l2 2 0 0 0 0 0 0 0 0 0 0 -1 0 0 1 0 0 0 0 0 0 0 0 -1 0 0 0 0 0 0 1 0 0 -1 0 0 0 0 0 0 0 0 0 -1 0 0 0 0 0 0 0 0 0 -1 0 0 0 0 0 0 0 -1 0 0 0 0 0 0 -2 0 0 0 0 0 0 1 0 0 0 0 0 0 0 0 0 0 -1 0 0 1 0 0 0 0 0 0 0 0 0 0 0 0 0 1 0 0 0 0 0 0 0 0 0 0 0 0 0 0 -1 1 0 0 0 0 0 0 0 0 0 0 0 0 0 0 0zm2 -5l3 0 0 0 0 1 0 0 0 0 0 0 0 0 0 1 0 0 0 0 0 0 -1 1 0 0 0 0 0 0 0 0 0 1 0 0 0 0 0 0 0 0 0 1 0 0 -1 0 0 0 0 0 0 1 0 0 0 0 0 0 0 0 -1 0 0 1 0 0 -2 -2 0 0 0 0 1 -1 0 0 0 0 0 0 0 0 0 0 0 0 0 0 0 -1 0 0 0 0 0 0 1 0 0 0 0 0 0 -1 0 0 0 0 0 0 0 0 0 0 0 0 0 -1 0 0 0 0 0 0 0 0 0 0 0 -1 0 0 0 0zm3 -121l0 121 -3 0 0 -121 0 0 3 0zm-5 -4l2 -2 0 0 0 0 0 0 1 0 0 1 0 0 0 0 0 0 0 0 0 0 0 1 1 0 0 0 0 0 0 0 0 1 0 0 0 0 0 0 0 0 0 1 0 0 0 0 1 0 0 1 0 0 0 0 0 0 0 0 0 1 0 0 0 0 0 0 -3 0 0 0 0 0 0 0 0 0 0 0 0 -1 0 0 0 0 0 0 0 0 0 0 0 -1 0 0 0 0 0 0 0 0 0 0 -1 0 0 -1 0 0 0 0 0 0 0 0 0 0 0 0 0 0 0 -1 0 0 0 0 -1 0 0 0 0 0 0 0zm-4 -2l0 -3 0 0 0 0 0 0 1 0 0 0 0 0 0 0 1 0 0 0 0 0 0 0 0 1 1 0 0 0 0 0 0 0 0 0 1 0 0 0 0 0 0 0 0 0 1 1 0 0 0 0 0 0 0 0 0 0 1 0 0 0 0 1 0 0 0 0 -2 2 0 0 0 0 0 0 0 -1 0 0 0 0 -1 0 0 0 0 0 0 0 0 0 0 0 0 0 0 0 -1 0 0 0 0 -1 0 0 0 0 0 0 0 0 -1 0 0 0 0 0 0 0 0 0 0 0 0 0 -1 0 0 0 0 0 0 0 0 0zm-121 -3l121 0 0 3 -121 0 -1 -2 1 -1zm-1 1l1 -1 0 0 -1 1zm-2 4l0 -3 0 0 0 0 0 0 0 0 1 0 0 0 0 0 0 0 0 0 0 0 0 0 0 0 0 0 0 0 0 0 0 0 0 0 1 0 0 0 0 0 0 0 0 0 0 0 0 0 0 0 0 0 0 -1 0 0 0 0 0 0 0 0 0 0 0 0 3 1 0 0 -1 1 0 0 0 0 0 0 0 0 0 0 0 0 0 1 0 0 0 0 0 0 -1 0 0 0 0 0 0 0 0 0 0 1 0 0 -1 0 0 0 0 0 0 0 0 0 -1 0 0 0 0 0 0 0 0 0 0 0 -1 0 0 0 0 0zm-5 -5l3 0 0 0 0 0 0 0 0 0 0 0 0 0 0 1 0 0 0 0 0 0 0 0 0 0 0 0 0 0 0 0 0 1 1 0 0 0 0 0 0 0 0 0 0 0 0 0 0 0 0 0 0 0 1 0 0 0 0 0 0 0 0 0 0 0 0 0 0 3 0 0 0 0 -1 0 0 0 0 0 0 0 0 0 -1 0 0 0 0 0 0 -1 -1 0 0 0 0 0 0 0 0 0 0 -1 -1 0 0 0 0 0 0 0 0 -1 0 0 0 0 -1 0 0 0 0 -1 0 0 0 0 0 -1 0 0 0 0 0 0zm5 -5l0 2 0 0 0 0 0 1 0 0 0 0 0 0 0 0 -1 0 0 0 0 0 0 0 0 0 0 0 0 0 0 0 0 0 0 0 -1 0 0 0 0 1 0 0 0 0 0 0 0 0 0 0 0 0 0 0 0 0 0 0 0 1 0 0 0 0 0 0 -3 0 0 0 0 -1 0 0 0 0 0 0 0 -1 0 0 1 0 0 0 0 -1 0 0 0 0 0 0 0 0 1 -1 0 0 0 0 0 0 0 0 0 0 1 -1 0 0 0 0 0 0 1 0 0 0 0 0 0 0 0 0 1 0 0 0 0 0 0 0zm3 2l0 3 -1 -1 0 0 0 0 0 0 0 0 0 -1 0 0 0 0 0 0 0 0 0 0 0 0 0 0 0 0 0 0 0 0 -1 0 0 0 0 0 0 0 0 0 0 0 0 0 0 0 0 0 0 0 0 0 0 0 0 0 -1 0 0 -1 0 0 0 0 0 -2 0 0 1 0 0 0 0 0 0 0 0 0 1 0 0 0 0 0 0 0 0 0 0 0 1 0 0 0 0 0 0 1 0 0 0 0 0 0 1 0 0 0 0 0 0 0 0 1 0 0 0 0 0 0 0 0 0 0 1 0 0 1 0 0 -2 -1zm0 3l0 0 -1 -1 1 1zm-287 140l-3 0 0 0 0 0 0 0 0 0 0 -1 0 0 0 0 0 0 0 0 0 0 0 0 0 0 0 0 0 0 0 -1 0 0 -1 0 0 0 0 0 0 0 0 0 0 0 0 0 0 0 0 0 0 0 0 0 -1 0 0 0 0 0 0 0 0 0 0 0 0 -3 0 0 0 0 1 0 0 0 0 0 0 0 1 0 0 0 0 0 0 0 0 0 1 1 0 0 0 0 0 0 0 0 1 0 0 1 0 0 0 0 0 0 0 0 0 1 0 0 1 0 0 0 0 1 0 0 0 0 0 0 0 1 0 0 0 0zm-5 5l0 -3 0 0 0 0 0 0 0 0 0 0 0 0 1 0 0 0 0 0 0 0 0 0 0 0 0 0 0 0 0 0 0 0 0 0 1 0 0 0 0 -1 0 0 0 0 0 0 0 0 0 0 0 0 0 0 0 0 0 -1 0 0 0 0 0 0 0 0 3 0 0 0 0 1 0 0 0 0 0 0 0 1 0 0 -1 0 0 0 0 0 0 1 0 0 0 0 0 0 0 1 -1 0 0 0 0 0 0 0 0 0 -1 0 0 1 0 0 0 0 0 0 -1 0 0 0 0 0 0 0 -1 0 0 0 0 0 0 0zm-4 -2l0 -3 2 1 0 0 0 0 0 0 0 0 0 0 0 0 0 0 0 0 0 1 0 0 0 0 0 0 0 0 0 0 0 0 1 0 0 0 0 0 0 0 0 0 0 0 0 0 0 0 0 0 0 0 0 0 0 0 0 0 1 0 0 0 0 0 0 0 0 3 0 0 -1 0 0 0 0 0 0 0 0 0 -1 0 0 0 0 0 0 0 0 0 0 0 -1 0 0 0 0 -1 0 0 0 0 0 0 0 0 -1 0 0 0 0 0 0 -1 0 0 0 0 0 0 0 0 -1 0 0 -1 0 0 0 0 0 0 1 1zm0 -3l1 0 1 1 -2 -1zm-35 0l35 0 0 3 -35 0 0 0 0 -3zm-8 -1l1 -2 0 0 1 0 0 0 0 1 0 0 0 0 0 0 1 0 0 0 0 0 0 1 0 0 1 0 0 0 0 0 0 0 0 0 1 0 0 0 0 0 0 1 0 0 1 0 0 0 0 0 0 0 1 0 0 0 0 0 0 0 0 0 1 0 0 0 0 3 0 0 -1 0 0 0 0 0 -1 0 0 0 0 0 0 0 -1 -1 0 0 0 0 -1 0 0 0 0 0 0 0 -1 0 0 0 0 0 0 -1 -1 0 0 0 0 0 0 0 -1 0 0 -1 0 0 0 0 -1 0 0 0 0 0 0 -1 0 0 0 0zm-4 -9l3 0 0 0 0 1 0 0 0 0 0 0 0 1 0 0 0 0 0 0 0 0 0 1 0 0 0 0 0 0 0 1 0 0 0 0 1 0 0 0 0 1 0 0 0 0 0 0 0 0 0 1 0 0 1 0 0 0 0 0 0 1 0 0 0 0 0 0 -1 2 -1 0 0 0 0 -1 0 0 0 0 -1 0 0 0 0 -1 0 0 0 0 0 0 -1 -1 0 0 0 0 0 -1 0 0 0 0 0 0 0 -1 0 0 -1 0 0 -1 0 0 0 0 0 0 0 -1 0 0 0 0 0 -1 0 0 0 0 0 -1 0 0zm3 -121l0 121 -3 0 0 -121 0 0 3 0zm0 -8l2 2 0 0 0 0 0 0 0 0 0 0 0 0 0 1 -1 0 0 0 0 0 0 0 0 1 0 0 0 0 0 0 0 0 -1 1 0 0 0 0 0 0 0 0 0 1 0 0 0 0 0 0 0 1 0 0 0 0 0 0 0 1 0 0 0 0 0 0 -3 0 0 0 0 0 0 -1 0 0 0 0 0 -1 0 0 0 0 0 0 0 -1 0 0 1 0 0 -1 0 0 0 0 0 0 0 -1 0 0 0 0 0 -1 1 0 0 0 0 0 0 -1 0 0 0 0 1 0 0 -1 0 0 0 0 0 0 0 0 0 0zm9 -4l0 3 0 0 0 0 -1 0 0 0 0 0 0 0 0 0 -1 0 0 0 0 0 0 0 -1 0 0 0 0 0 0 0 0 0 -1 0 0 1 0 0 0 0 0 0 -1 0 0 0 0 0 0 0 0 0 -1 1 0 0 0 0 0 0 0 0 0 0 -1 1 -2 -2 1 -1 0 0 0 0 0 0 1 0 0 -1 0 0 0 0 1 0 0 0 0 0 0 -1 1 0 0 0 0 0 0 0 1 0 0 0 0 0 0 -1 1 0 0 0 0 0 1 0 0 0 0 0 0 0 1 0 0 0 0 0 1 0 0 0 0 0zm123 3l-123 0 0 -3 123 0 1 2 -1 1zm1 -1l0 1 -1 0 1 -1zm2 -4l0 2 0 0 0 0 0 0 0 1 0 0 0 0 0 0 -1 0 0 0 0 0 0 0 0 0 0 0 0 0 0 0 0 0 0 0 0 0 0 0 0 0 0 0 0 0 0 0 -1 0 0 0 0 0 0 0 0 0 0 1 0 0 0 0 0 0 0 0 -2 -1 0 0 0 -1 0 0 0 0 0 0 0 0 0 0 0 0 0 -1 1 0 0 0 0 0 0 0 0 0 0 0 0 0 0 -1 1 0 0 0 0 0 0 0 0 0 0 0 1 0 0 0 0 0 0 0 0 0 1 0 0 0 0 0 0 0 0 0zm5 5l-2 0 0 0 0 0 -1 0 0 0 0 -1 0 0 0 0 0 0 0 0 0 0 0 0 0 0 0 0 0 0 0 -1 0 0 0 0 0 0 0 0 -1 0 0 0 0 0 0 0 0 0 0 0 0 0 0 0 0 0 0 0 -1 0 0 0 0 -1 0 0 0 -2 0 0 1 0 0 0 0 0 0 0 1 0 0 0 0 0 0 0 0 0 1 0 0 1 0 0 0 0 0 0 1 0 0 0 0 1 0 0 0 0 0 0 1 0 0 1 0 0 0 0 0 0 0 1 0 0 0 0 0 0 0 1 0 0 0 0zm-5 5l0 -3 0 0 0 0 0 0 0 0 1 0 0 0 0 0 0 0 0 0 0 0 0 0 0 0 0 0 0 0 1 0 0 0 0 0 0 0 0 -1 0 0 0 0 0 0 0 0 0 0 0 0 0 0 0 0 0 -1 0 0 0 0 0 0 1 0 0 0 2 0 0 0 0 0 0 1 0 0 0 0 0 1 0 0 0 0 0 0 0 0 -1 1 0 0 0 0 0 0 0 0 0 1 -1 0 0 0 0 0 0 0 0 0 -1 1 0 0 0 0 0 0 0 0 -1 0 0 0 0 0 0 0 -1 0 0 0 0 0zm-3 -2l0 -3 1 1 0 0 0 0 0 0 0 0 0 0 0 0 0 1 0 0 1 0 0 0 0 0 0 0 0 0 0 0 0 0 0 0 0 0 0 0 0 0 0 0 0 0 0 0 0 0 0 0 0 0 1 0 0 0 0 0 0 0 0 0 0 0 0 0 0 3 0 0 0 0 0 0 -1 0 0 0 0 0 0 0 0 0 -1 0 0 0 0 0 0 0 0 0 0 0 0 -1 -1 0 0 0 0 0 0 0 0 0 0 0 0 0 -1 0 0 -1 0 0 0 0 0 0 0 0 0 0 0 0 0 -1 0 0 1 1zm0 -3l1 0 0 1 -1 -1zm-123 0l123 0 0 3 -123 0 0 0 0 -3zm-4 5l-2 -2 0 0 0 0 0 0 0 -1 0 0 1 0 0 0 0 0 0 0 0 0 0 0 1 -1 0 0 0 0 0 0 0 0 1 0 0 0 0 0 0 0 0 0 1 0 0 -1 0 0 0 0 0 0 1 0 0 0 0 0 0 0 0 0 1 0 0 0 0 3 0 0 0 0 -1 0 0 0 0 0 0 0 0 0 0 0 0 0 -1 0 0 0 0 0 0 0 0 0 0 0 0 1 -1 0 0 0 0 0 0 0 0 0 0 0 0 0 0 0 -1 0 0 0 0 0 0 0 0 1 0 0 0 0 0 0 0 0zm-2 4l-3 0 0 0 0 0 0 0 0 0 0 -1 0 0 0 0 0 0 0 0 0 -1 0 0 1 0 0 0 0 -1 0 0 0 0 0 0 0 0 0 -1 0 0 0 0 0 0 0 0 1 -1 0 0 0 0 0 0 0 0 0 0 0 -1 0 0 1 0 0 0 2 2 0 0 -1 0 0 0 0 0 0 0 0 1 0 0 0 0 0 0 0 0 0 0 0 0 0 0 -1 1 0 0 0 0 0 0 0 0 0 0 0 0 0 1 0 0 0 0 0 0 0 0 0 0 0 1 0 0 0 0 0 0 0 0 0 0 0 0zm-3 121l0 -121 3 0 0 121 0 0 -3 0zm5 5l-2 2 0 0 0 0 -1 -1 0 0 0 0 0 0 0 0 0 0 0 -1 0 0 -1 0 0 0 0 0 0 -1 0 0 0 0 0 0 0 0 0 -1 0 0 0 0 0 0 -1 0 0 -1 0 0 0 0 0 0 0 -1 0 0 0 0 0 0 0 0 0 -1 3 0 0 0 0 1 0 0 0 0 0 0 0 0 0 0 0 1 0 0 0 0 0 0 0 0 0 0 0 0 0 1 0 0 0 0 0 0 1 0 0 0 0 0 0 1 0 0 0 0 0 0 0 0 0 0 0 0 0 0 0 1 1 0 0 0 0 0zm4 2l0 2 0 0 0 0 -1 0 0 0 0 0 0 0 0 0 -1 0 0 0 0 0 0 0 0 0 -1 0 0 0 0 0 0 0 0 0 -1 0 0 0 0 -1 0 0 0 0 -1 0 0 0 0 0 0 0 0 0 0 -1 -1 0 0 0 0 0 0 0 0 0 2 -2 0 0 0 0 0 0 0 0 0 0 0 0 0 0 1 1 0 0 0 0 0 0 0 0 0 0 0 0 0 0 1 0 0 0 0 0 0 0 0 0 0 0 0 0 1 0 0 1 0 0 0 0 0 0 0 0 0 0 1 0 0 0 0 0 0 0zm36 2l-36 0 0 -2 36 0 1 2 -1 0zm1 0l-1 0 0 0 1 0zm2 -4l0 3 0 0 0 0 0 0 0 0 0 0 -1 0 0 0 0 0 0 0 0 0 0 0 0 0 0 0 0 0 0 0 0 0 0 0 0 0 0 0 -1 0 0 0 0 0 0 0 0 0 0 0 0 0 0 0 0 0 0 1 0 0 0 0 0 0 0 0 -3 -2 1 0 0 0 0 0 0 0 0 0 0 0 0 -1 0 0 0 0 1 0 0 0 0 0 0 0 0 0 0 0 0 -1 0 0 1 0 0 0 0 0 0 0 0 0 0 0 0 0 1 0 0 0 0 0 0 0 0 0 0 0 1 0 0 0 0 0z"/>
  </g>
  <path class="fil3" d="M80 423c-2,0 -3,0 -4,-1 0,-1 -1,-2 -1,-4l0 -6c0,-2 1,-4 1,-4 1,-1 2,-2 4,-2 2,0 3,1 4,1 0,1 1,2 1,4l0 0 -3 0 0 0c0,-1 0,-2 0,-2 0,-1 -1,-1 -2,-1 -1,0 -1,1 -2,1 0,1 0,1 0,3l0 6c0,1 0,2 0,2 0,1 1,1 2,1 1,0 2,0 2,0l0 0 0 -5 0 0 -2 0 0 -2 5 0 0 8 0 0c-1,1 -3,1 -5,1zm8 0l0 -11 0 0 1 0 1 0 0 0 0 1 0 0 0 0 0 -1c1,0 1,-1 2,-1l0 2c-1,0 -1,1 -2,1 0,1 0,1 0,3l0 0 0 6 0 0 -1 0 -1 0zm10 0c-2,0 -3,0 -3,-1 -1,-1 -1,-2 -1,-3l0 -4c0,-1 0,-2 1,-3 1,0 2,-1 3,-1 1,0 2,1 3,1 0,1 1,2 1,3l0 3 0 0 -6 0 0 0 0 1c0,1 0,2 0,2 1,0 1,0 2,0 0,0 1,0 1,0 0,0 0,-1 0,-1l0 -1 3 0 0 1c0,1 -1,2 -1,2 -1,1 -2,1 -3,1zm1 -7l0 0 0 -1c0,-1 0,-1 0,-2 0,0 -1,0 -1,0 -1,0 -1,0 -1,0 -1,1 -1,2 -1,2l0 1 0 0 3 0zm7 7c-1,0 -1,0 -2,-1 0,0 0,-1 0,-2l0 0c0,-2 0,-3 1,-3 0,-1 2,-1 4,-1l0 0 0 0 0 -1c0,-1 0,-1 0,-2 -1,0 -1,0 -2,0 0,0 0,0 -1,0 0,1 0,1 0,2l0 0 -2 0 0 0c0,-1 0,-2 1,-3 0,0 1,-1 2,-1 2,0 3,1 3,1 1,1 1,2 1,3l0 8 0 0 0 0 -2 0 0 0 0 -1 0 0c0,0 0,0 0,0 -1,1 -2,1 -3,1zm3 -5l0 -1 0 0 -1 0c0,0 -1,1 -2,1 0,0 0,1 0,2l0 0c0,0 0,1 0,1 0,0 1,0 1,0 1,0 1,0 2,0 0,-1 0,-2 0,-3zm9 5c0,0 -1,0 -1,0 -1,0 -1,0 -2,0 0,-1 0,-1 0,-2l0 -8 0 0 -2 0 0 -1 2 0 0 0 0 -3 2 0 0 3 0 0 1 0 0 1 -1 0 0 0 0 7c0,1 0,1 0,1 0,0 1,0 1,0l0 0 0 2zm8 0l0 0 0 -16 0 0 2 0 1 0 0 0 0 14 0 0 4 0 0 0 0 1 0 1 0 0 -7 0zm13 0c-1,0 -2,0 -3,-1 0,-1 -1,-2 -1,-3l0 -4c0,-1 1,-2 1,-3 1,0 2,-1 3,-1 1,0 2,1 3,1 1,1 1,2 1,3l0 4c0,1 0,2 -1,3 -1,1 -2,1 -3,1zm0 -2c1,0 1,0 1,0 1,-1 1,-1 1,-2l0 -3c0,-1 0,-2 -1,-2 0,-1 0,-1 -1,-1 0,0 -1,0 -1,0 0,1 0,2 0,3l0 3c0,1 0,2 0,2 0,0 1,0 1,0zm13 -2l0 1c0,1 0,2 0,2 -1,1 -2,1 -3,1 -1,0 -2,0 -3,-1 0,0 -1,-1 -1,-3l0 -4c0,-1 1,-2 1,-3 1,0 2,-1 3,-1 1,0 2,1 3,1 0,1 0,1 0,2l0 1 0 0 -2 0 0 0c0,-1 0,-1 0,-2 0,0 -1,0 -1,0 -1,0 -1,0 -1,0 0,1 -1,1 -1,2l0 4c0,1 1,2 1,2 0,0 0,0 1,0 0,0 1,0 1,0 0,0 0,-1 0,-1l0 -1 2 0zm5 4c-1,0 -1,0 -2,-1 0,0 0,-1 0,-2l0 0c0,-2 0,-3 1,-3 1,-1 2,-1 4,-1l0 0 0 0 0 -1c0,-1 0,-1 0,-2 -1,0 -1,0 -1,0 -1,0 -1,0 -2,0 0,1 0,1 0,2l0 0 -2 0 0 0c0,-1 0,-2 1,-3 0,0 1,-1 3,-1 1,0 2,1 2,1 1,1 1,2 1,3l0 8 0 0 0 0 -2 0 0 0 0 -1 0 0c0,0 0,0 0,0 -1,1 -1,1 -3,1zm3 -5l0 -1 0 0 0 0c-1,0 -2,1 -2,1 -1,0 -1,1 -1,2l0 0c0,0 0,1 0,1 0,0 1,0 1,0 1,0 1,0 2,0 0,-1 0,-2 0,-3zm10 5c-1,0 -1,0 -2,0 -1,0 -1,0 -2,0 0,-1 0,-1 0,-2l0 -8 0 0 -2 0 0 -1 2 0 0 0 0 -3 2 0 0 3 0 0 2 0 0 1 -2 0 0 0 0 7c0,1 0,1 0,1 0,0 1,0 2,0l0 0 0 2zm2 0l0 -11 0 0 1 0 1 0 0 0 0 11 0 0 -1 0 -1 0zm0 -16l2 0 0 2 -2 0 0 -2zm8 16c-1,0 -2,0 -3,-1 0,-1 -1,-2 -1,-3l0 -4c0,-1 1,-2 1,-3 1,0 2,-1 3,-1 1,0 2,1 3,1 1,1 1,2 1,3l0 4c0,1 0,2 -1,3 -1,1 -2,1 -3,1zm0 -2c1,0 1,0 1,0 1,-1 1,-1 1,-2l0 -3c0,-1 0,-2 -1,-2 0,-1 0,-1 -1,-1 0,0 -1,0 -1,0 0,1 0,2 0,3l0 3c0,1 0,2 0,2 0,0 0,0 1,0zm6 2l0 -11 0 0 1 0 1 0 0 0 0 0 0 0 0 0 0 0c1,0 2,-1 3,-1 1,0 2,1 2,1 1,0 1,1 1,2l0 9 0 0 -1 0 -1 0 0 0 0 -8c0,-1 0,-1 -1,-2 0,0 0,0 -1,0 0,0 -1,0 -1,0 0,1 -1,1 -1,2l0 0 0 8 0 0 -1 0 -1 0zm18 0c-1,0 -1,0 -2,-1 0,0 -1,-1 -1,-2l0 0c0,-2 1,-3 1,-3 1,-1 3,-1 4,-1l1 0 0 0 0 -1c0,-1 0,-1 -1,-2 0,0 0,0 -1,0 0,0 -1,0 -1,0 0,1 0,1 0,2l0 0 -2 0 0 0c0,-1 0,-2 1,-3 0,0 1,-1 2,-1 1,0 2,1 3,1 1,1 1,2 1,3l0 8 0 0 0 0 -2 0 0 0 0 -1 0 0c0,0 0,0 -1,0 0,1 -1,1 -2,1zm3 -5l0 -1 0 0 -1 0c-1,0 -1,1 -2,1 0,0 0,1 0,2l0 0c0,0 0,1 0,1 0,0 0,0 1,0 0,0 1,0 1,0 1,-1 1,-2 1,-3zm9 5c0,0 -1,0 -1,0 -1,0 -2,0 -2,0 0,-1 -1,-1 -1,-2l0 -8 0 0 -1 0 0 -1 1 0 0 0 0 -3 3 0 0 3 0 0 1 0 0 1 -1 0 0 0 0 7c0,1 0,1 0,1 0,0 1,0 1,0l0 0 0 2zm10 0l0 0 -1 0 -1 0 0 0 0 -16 0 0 2 0 2 0 0 0 3 13 0 0 0 0 3 -13 0 0 2 0 1 0 0 0 0 16 0 0 -1 0 -1 0 0 0 0 -14 0 0 -3 14 -1 0 -1 0 -4 -14 0 0 0 14zm19 0c-2,0 -3,0 -3,-1 -1,-1 -1,-2 -1,-4l0 -6c0,-2 0,-4 1,-4 0,-1 2,-2 3,-2 2,0 3,1 4,2 1,0 1,2 1,4l0 6c0,2 0,3 -1,4 -1,1 -2,1 -4,1zm0 -2c1,0 2,0 2,-1 1,0 1,-1 1,-2l0 -7c0,-1 0,-2 -1,-2 0,-1 -1,-1 -2,-1 -1,0 -1,1 -2,1 0,1 0,1 0,3l0 6c0,1 0,2 0,2 1,1 1,1 2,1zm8 2l0 -16 0 0 1 0 1 0 0 0 0 7 0 0 5 0 0 0 0 -7 0 0 1 0 1 0 0 0 0 16 0 0 -1 0 -1 0 0 0 0 -8 0 0 -5 0 0 0 0 8 0 0 -1 0 -1 0zm12 0l4 -16 1 0 2 0 4 16 0 0 -2 0 -1 0 0 0 -1 -4 0 0 -4 0 0 0 -1 4 0 0 -1 0 -1 0zm5 -14l-2 8 0 0 4 0 0 0 -2 -8 0 0zm8 14l0 0 0 -16 0 0 1 0 1 0 0 0 0 14 0 0 5 0 0 0 0 1 0 1 0 0 -7 0zm9 0l0 -16 0 0 2 0 1 0 0 0 0 16 0 0 -1 0 -2 0zm17 0l0 0 0 -16 0 0 7 0 0 0 0 1 0 0 0 0 -5 0 0 0 0 6 0 0 5 0 0 0 0 1 0 0 -5 0 0 0 0 6 0 0 5 0 0 0 0 1 0 1 0 0 -7 0zm9 0l4 -9 0 0 -3 -7 0 0 1 0 1 0 0 0 3 5 0 0 0 0 2 -5 0 0 1 0 1 0 0 0 -3 7 0 0 4 9 0 0 -2 0 -1 0 0 0 -3 -7 0 0 0 0 -3 7 0 0 -1 0 -1 0zm16 0l0 -15 0 0 -3 0 0 0 0 0 0 -1 0 0 9 0 0 0 0 1 0 0 0 0 -3 0 0 0 0 15 0 0 -1 0 -2 0zm9 0l0 0 0 -16 0 0 7 0 0 0 0 1 0 0 0 0 -5 0 0 0 0 6 0 0 5 0 0 0 0 1 0 0 -5 0 0 0 0 6 0 0 5 0 0 0 0 1 0 1 0 0 -7 0zm12 0l0 0 -1 0 -1 0 0 0 0 -16 0 0 2 0 2 0 0 0 4 14 0 0 0 0 0 -14 0 0 1 0 1 0 0 0 0 16 -2 0 -1 0 -5 -14 0 0 0 0 0 14zm18 -12l0 0c0,-1 0,-2 -1,-2 0,-1 -1,-1 -1,-1 -1,0 -2,0 -2,1 0,0 -1,1 -1,2 0,0 1,1 1,1 0,0 1,1 2,1 2,1 3,2 3,3 1,0 1,1 1,2 0,2 0,3 -1,4 -1,1 -2,1 -4,1 -1,0 -3,0 -3,-1 -1,-1 -1,-2 -1,-4l0 0 0 -1 2 0 0 1c0,1 0,2 1,2 0,1 1,1 1,1 1,0 2,0 2,0 1,-1 1,-2 1,-2 0,-1 0,-2 -1,-2 0,0 -1,-1 -2,-2 -1,0 -3,-1 -3,-2 -1,0 -1,-1 -1,-2 0,-2 0,-3 1,-4 1,0 2,-1 4,-1 1,0 2,1 3,1 1,1 1,2 1,3l0 1 0 0 -2 0zm5 12l0 -16 0 0 1 0 1 0 0 0 0 16 0 0 -1 0 -1 0zm10 0c-2,0 -3,0 -4,-1 0,-1 -1,-2 -1,-4l0 -6c0,-2 1,-4 1,-4 1,-1 2,-2 4,-2 2,0 3,1 4,2 0,0 1,2 1,4l0 6c0,2 -1,3 -1,4 -1,1 -2,1 -4,1zm0 -2c1,0 1,0 2,-1 0,0 0,-1 0,-2l0 -7c0,-1 0,-2 0,-2 0,-1 -1,-1 -2,-1 -1,0 -2,1 -2,1 0,1 0,1 0,3l0 6c0,1 0,2 0,2 0,1 1,1 2,1zm10 2l0 0 -1 0 -1 0 0 0 0 -16 0 0 1 0 2 0 0 0 5 14 0 0 0 0 0 -14 0 0 1 0 1 0 0 0 0 16 -2 0 -2 0 -4 -14 0 0 0 0 0 14z"/>
  <g>
   <path class="fil3" d="M233 10c31,0 56,25 56,56 0,0 0,1 0,1 0,1 0,5 -1,7 -1,2 -3,4 -6,4 -3,0 -6,-3 -6,-7 0,-1 1,-4 1,-6 0,-1 0,-2 0,-3 0,-23 -18,-41 -41,-41 -23,0 -41,18 -41,41 0,17 10,31 24,37 28,12 47,-3 81,24 8,7 15,15 21,24 9,14 14,31 14,49 0,52 -43,94 -96,94 -52,0 -95,-42 -95,-94 0,-23 8,-44 22,-61 4,-3 7,-8 12,-8 5,0 9,4 9,8 0,6 -5,8 -8,12 -10,12 -15,27 -15,43 0,38 31,69 70,69 39,0 70,-31 70,-69 0,-23 -11,-43 -29,-56 -25,-19 -51,-5 -76,-24 -14,-10 -23,-26 -23,-44 0,-31 25,-56 57,-56z"/>
   <path id="1" class="fil4" d="M299 66l-21 0 0 0 0 -3 0 -2 0 -2 -1 -2 0 -3 -1 -2 0 -2 -1 -2 -1 -2 -1 -2 -1 -2 -1 -2 -2 -1 -1 -2 -2 -2 -1 -1 -2 -2 -1 -1 -2 -1 -2 -2 -2 -1 -2 -1 -2 -1 -2 -1 -2 -1 -2 0 -2 -1 -2 -1 -2 0 -3 0 -2 0 -2 0 0 -21 3 0 3 0 4 1 3 0 3 1 3 1 3 1 3 1 3 1 3 2 3 2 3 1 2 2 3 2 2 2 3 2 2 3 2 2 2 2 2 3 2 3 1 2 2 3 1 3 1 3 1 3 1 3 1 3 0 4 1 3 0 3 0 4 0 0zm0 1l-21 0 0 0 0 0 0 0 0 0 0 0 0 0 0 0 0 -1 0 0 0 0 0 0 0 0 0 0 0 0 0 0 0 0 0 0 0 0 0 0 0 0 0 0 0 0 0 0 0 0 0 0 0 0 0 0 0 0 0 0 0 0 0 0 0 0 0 0 21 0 0 0 0 0 0 0 0 0 0 0 0 0 0 0 0 0 0 0 0 0 0 0 0 0 0 0 0 0 0 0 0 0 0 0 0 1 0 0 0 0 0 0 0 0 0 0 0 0 0 0 0 0 0 0 0 0 0 0 0 0 0 0 0 0 0 0zm-1 10l-20 -7 0 0 0 0 0 1 0 0 0 0 0 0 0 0 0 0 0 0 0 0 0 0 0 -1 0 0 0 0 0 0 0 0 0 0 0 -1 0 0 0 0 0 0 0 0 0 -1 0 0 0 0 0 0 0 0 0 -1 0 0 0 0 0 0 0 0 0 0 21 0 0 0 0 1 0 0 0 0 0 0 0 0 0 1 0 0 0 0 0 0 0 1 0 0 0 0 0 0 0 1 0 0 0 0 0 1 0 0 0 0 0 1 0 0 0 0 0 1 0 0 0 0 0 1 -1 0 0 1 0 0 0 1 0 0 0 0zm-16 11l0 -21 0 0 0 0 0 0 0 0 0 0 -1 0 0 0 0 1 0 0 0 0 0 0 -1 0 0 0 0 0 0 0 0 0 0 0 0 0 0 0 -1 0 0 0 0 1 0 0 0 0 0 0 0 0 0 0 0 0 0 0 0 1 -1 0 0 0 0 0 20 7 0 1 -1 1 0 0 0 1 -1 0 0 1 0 0 -1 1 0 0 0 1 -1 0 0 0 -1 1 0 0 -1 1 0 0 -1 0 0 1 -1 0 0 0 -1 0 -1 1 0 0 -1 0 0 0 -1 0 -1 1 0 0 -1 0 -1 0 0 0 -1 0 0 0zm-17 -17l21 0 0 0 0 0 0 0 0 0 0 0 0 -1 0 0 0 0 0 0 0 0 0 -1 0 0 0 0 -1 0 0 0 0 0 0 0 0 -1 0 0 0 0 -1 0 0 0 0 0 0 0 0 0 0 0 -1 0 0 0 0 -1 0 0 0 0 -1 0 0 0 0 21 -1 0 -1 0 0 0 -1 0 -1 -1 -1 0 -1 0 0 0 -1 -1 -1 0 -1 0 0 -1 -1 0 0 -1 -1 0 -1 -1 0 0 -1 -1 0 -1 -1 0 0 -1 -1 -1 0 0 0 -1 -1 -1 0 -1 0 0 0 -1 0 -1 0 -1 -1 -1 0 -1 0 0zm2 -7l20 2 0 0 0 0 0 1 0 0 0 1 0 0 0 0 0 0 0 1 0 0 0 0 0 1 0 0 0 0 0 0 0 1 0 0 -1 0 0 0 0 0 0 0 0 1 0 0 0 0 0 0 0 0 0 0 0 0 0 0 0 0 0 0 0 0 0 -1 -21 0 0 0 0 0 0 -1 1 0 0 -1 0 0 0 0 0 -1 0 0 0 0 0 -1 0 0 0 0 0 0 0 0 0 -1 0 0 0 0 0 0 0 0 0 -1 0 0 0 0 0 0 0 0 0 0 1 0 0 0 0 -1 0 0 0 0 0 0 0 0zm0 -2l20 0 0 0 0 0 0 0 0 0 0 0 0 1 0 0 0 0 0 0 0 0 0 0 0 0 0 0 0 1 0 0 0 0 0 0 0 0 0 0 0 0 0 1 0 0 0 0 0 0 0 0 0 0 0 0 0 0 0 0 0 1 0 0 0 0 0 0 -20 -2 0 0 0 0 0 0 0 0 0 0 0 0 0 0 0 0 0 0 0 0 0 0 0 -1 0 0 0 0 0 0 0 0 0 0 0 0 0 0 0 0 0 0 0 0 0 0 0 0 0 -1 0 0 0 0 0 0 0 0 0 0 0 0 0 0 0 0zm-31 -30l0 -21 0 0 2 0 3 0 3 1 2 0 3 1 2 0 3 1 2 1 2 1 2 1 3 1 2 2 2 1 2 2 2 1 1 2 2 2 2 2 1 1 2 2 1 3 1 2 1 2 1 2 1 2 1 3 1 2 0 3 1 2 0 3 0 2 0 3 -20 0 0 -2 -1 -1 0 -2 0 -1 0 -2 -1 -1 0 -2 -1 -1 0 -1 -1 -2 -1 -1 -1 -1 0 -1 -1 -1 -1 -1 -1 -2 -1 -1 -2 -1 -1 0 -1 -1 -1 -1 -2 -1 -1 0 -1 -1 -2 -1 -1 0 -1 -1 -2 0 -2 0 -1 0 -2 0 -1 0 0 0zm-31 30l-21 0 0 0 0 -3 0 -2 1 -3 0 -2 1 -3 0 -2 1 -3 1 -2 1 -2 1 -2 2 -2 1 -3 1 -2 2 -1 2 -2 1 -2 2 -2 2 -1 2 -2 2 -1 2 -2 2 -1 2 -1 3 -1 2 -1 2 -1 3 0 2 -1 3 0 3 -1 2 0 3 0 0 21 -2 0 -1 0 -2 0 -1 0 -2 0 -1 1 -2 0 -1 1 -2 1 -1 0 -1 1 -1 1 -2 1 -1 0 -1 1 -1 1 -1 2 -1 1 -1 1 -1 1 -1 1 0 1 -1 2 -1 1 0 1 -1 2 0 1 0 2 -1 1 0 2 0 1 0 2 0 0zm19 28l-9 19 0 0 -1 -1 -2 -1 -2 -1 -1 -1 -2 -1 -1 -1 -2 -1 -1 -1 -2 -1 -1 -1 -1 -2 -2 -1 -1 -1 -1 -2 -1 -1 -1 -2 -1 -1 -1 -2 -1 -1 -1 -2 -1 -2 0 -1 -1 -2 -1 -2 0 -2 -1 -2 0 -1 0 -2 -1 -2 0 -2 0 -2 0 -2 21 0 0 1 0 1 0 1 0 2 0 1 1 1 0 1 0 1 1 1 0 1 0 1 1 1 0 1 1 1 1 1 0 1 1 1 0 1 1 0 1 1 1 1 0 1 1 1 1 0 1 1 1 1 1 0 1 1 1 0 1 1 1 0 1 1 0 0zm82 25l-13 16 0 0 -3 -2 -3 -2 -2 -2 -3 -2 -2 -1 -3 -1 -2 -1 -2 -1 -2 -1 -2 0 -3 -1 -2 0 -2 -1 -2 0 -2 0 -2 -1 -2 0 -2 0 -2 0 -3 0 -2 0 -2 0 -3 -1 -2 0 -3 0 -3 0 -2 -1 -3 0 -3 -1 -3 -1 -3 -1 -3 -1 9 -19 2 1 2 0 2 1 2 1 2 0 2 0 2 1 2 0 2 0 2 0 2 0 2 0 3 0 2 1 2 0 3 0 2 0 3 1 3 0 3 0 2 1 3 1 3 1 3 1 3 1 3 1 4 2 3 2 3 2 3 2 4 2 3 3 0 0zm24 26l-18 11 0 0 -1 -1 0 -1 -1 0 0 -1 -1 -1 0 0 -1 -1 0 -1 -1 -1 0 0 -1 -1 0 -1 -1 0 -1 -1 0 -1 -1 0 0 -1 -1 -1 0 0 -1 -1 -1 -1 0 0 -1 -1 -1 0 0 -1 -1 -1 -1 0 0 -1 -1 0 -1 -1 0 0 -1 -1 13 -16 1 1 1 0 1 1 1 1 0 1 1 0 1 1 1 1 1 1 0 0 1 1 1 1 1 1 0 1 1 0 1 1 1 1 0 1 1 1 1 0 1 1 0 1 1 1 1 1 0 1 1 1 0 1 1 0 1 1 0 1 1 1 1 1 0 0zm15 55l-21 0 0 0 0 -1 0 -2 0 -1 0 -2 0 -1 0 -2 0 -1 0 -2 -1 -1 0 -2 0 -1 0 -2 -1 -1 0 -1 0 -2 -1 -1 0 -2 -1 -1 0 -1 -1 -2 0 -1 -1 -1 0 -2 -1 -1 0 -1 -1 -2 -1 -1 0 -1 -1 -1 -1 -2 0 -1 -1 -1 18 -11 0 2 1 1 1 2 1 1 1 2 1 1 0 2 1 2 1 1 1 2 0 2 1 1 1 2 0 2 1 1 0 2 1 2 0 2 1 1 0 2 0 2 1 2 0 1 0 2 1 2 0 2 0 2 0 2 0 1 0 2 0 2 0 2 0 0zm-106 104l0 -20 0 0 5 0 4 -1 4 0 5 -1 4 -1 4 -1 4 -1 3 -2 4 -1 4 -2 3 -2 4 -2 3 -3 4 -2 3 -3 3 -3 2 -3 3 -3 3 -3 2 -3 2 -3 2 -4 2 -4 2 -3 1 -4 2 -4 1 -4 1 -4 0 -4 1 -4 0 -5 0 -4 21 0 0 5 0 6 -1 5 -1 5 -1 5 -1 5 -2 5 -2 5 -2 4 -2 5 -3 4 -3 4 -3 5 -3 3 -3 4 -4 4 -3 3 -4 4 -4 3 -4 3 -5 2 -4 3 -5 2 -4 2 -5 2 -5 2 -5 1 -5 1 -6 1 -5 1 -5 0 -6 0 0 0zm-106 -104l21 0 0 0 0 4 1 5 0 4 1 4 1 4 1 4 1 4 2 4 2 3 2 4 2 4 2 3 2 3 3 3 2 3 3 3 3 3 3 3 3 2 4 3 3 2 4 2 3 2 4 1 4 2 4 1 4 1 4 1 4 1 5 0 4 1 4 0 0 20 -5 0 -5 0 -6 -1 -5 -1 -5 -1 -5 -1 -5 -2 -5 -2 -5 -2 -4 -2 -5 -3 -4 -2 -4 -3 -4 -3 -4 -4 -4 -3 -3 -4 -3 -4 -4 -3 -2 -5 -3 -4 -3 -4 -2 -5 -2 -4 -2 -5 -2 -5 -1 -5 -1 -5 -1 -5 -1 -5 0 -6 -1 -5 0 0zm25 -67l16 13 0 0 -1 1 -1 2 -1 1 -1 2 -1 1 -1 2 -1 1 -1 2 -1 1 -1 2 -1 1 0 2 -1 2 -1 1 -1 2 0 2 -1 1 -1 2 0 2 -1 2 0 1 -1 2 0 2 0 2 -1 2 0 2 0 1 0 2 -1 2 0 2 0 2 0 2 -21 0 0 -2 1 -3 0 -2 0 -2 0 -3 0 -2 1 -2 0 -3 1 -2 0 -2 1 -3 0 -2 1 -2 1 -2 0 -2 1 -2 1 -3 1 -2 1 -2 1 -2 1 -2 1 -2 1 -2 1 -2 1 -2 1 -2 2 -1 1 -2 1 -2 2 -2 1 -2 1 -1 0 0zm20 -12l0 20 0 0 0 0 0 0 0 0 0 0 1 0 0 0 0 0 0 0 0 0 0 0 0 0 0 0 0 0 0 0 0 0 -1 0 0 0 0 1 0 0 0 0 0 0 -1 0 0 1 0 0 0 0 -1 1 0 0 0 0 -1 1 0 0 0 0 -1 1 -16 -13 1 -1 0 0 0 0 1 -1 0 0 0 0 0 -1 1 0 0 -1 1 0 0 -1 0 0 1 0 0 -1 1 0 0 -1 1 0 0 -1 1 0 1 -1 0 0 1 -1 1 0 1 -1 1 0 1 0 1 -1 1 0 1 0 1 0 1 0 1 0 0 0zm19 18l-21 0 0 0 0 1 0 0 0 0 0 0 0 0 0 0 0 0 0 0 0 0 0 0 1 0 0 0 0 0 0 0 0 1 0 0 0 0 0 0 0 0 0 0 0 0 0 0 0 0 0 0 0 0 0 0 0 0 1 0 0 0 0 0 0 0 0 0 0 -20 1 0 1 0 1 0 1 0 1 0 1 0 0 1 1 0 1 0 1 1 1 0 1 1 0 0 1 1 1 0 0 1 1 1 1 0 0 1 1 1 0 1 1 0 0 1 1 1 0 1 0 1 1 1 0 1 0 1 0 1 0 1 0 0 0 0zm-10 18l-16 -13 0 0 0 0 1 -1 0 0 1 -1 0 0 0 -1 1 0 0 0 1 -1 0 0 0 0 0 -1 1 0 0 0 0 0 0 0 0 0 1 -1 0 0 0 0 0 0 0 0 0 0 0 1 -1 0 0 0 0 0 0 0 0 0 0 0 0 0 0 0 21 0 0 2 0 1 0 1 0 1 -1 1 0 1 0 1 -1 0 0 1 -1 1 0 1 -1 0 0 1 0 1 -1 0 0 1 -1 0 0 1 -1 0 0 0 0 1 -1 0 0 0 0 1 -1 0 0 0 0 0 0 1 -1 0 0 0 0 0 0 0 0 0zm-13 37l-21 0 0 0 0 -2 0 -2 0 -1 1 -2 0 -2 0 -2 0 -1 0 -2 1 -2 0 -1 0 -2 1 -1 0 -2 1 -2 0 -1 1 -2 0 -1 1 -2 1 -1 0 -2 1 -1 1 -2 1 -1 0 -2 1 -1 1 -2 1 -1 1 -1 1 -2 1 -1 1 -1 1 -2 16 13 -1 1 0 1 -1 1 -1 1 -1 1 0 1 -1 1 0 1 -1 1 -1 1 0 1 -1 2 0 1 -1 1 0 1 0 1 -1 1 0 1 -1 2 0 1 0 1 -1 1 0 1 0 2 0 1 0 1 -1 1 0 2 0 1 0 1 0 1 0 2 0 0zm60 59l0 20 0 0 -4 0 -4 0 -4 -1 -4 0 -4 -1 -4 -1 -4 -2 -4 -1 -3 -2 -4 -1 -3 -2 -3 -2 -3 -3 -3 -2 -3 -3 -3 -2 -3 -3 -2 -3 -3 -3 -2 -3 -2 -3 -2 -3 -2 -4 -1 -3 -2 -4 -1 -4 -1 -3 -1 -4 -1 -4 0 -4 -1 -4 0 -4 21 0 0 3 0 3 1 3 0 3 1 2 1 3 1 3 1 3 1 2 1 3 2 2 1 3 2 2 2 2 2 2 2 2 2 2 2 2 2 2 2 2 3 1 2 1 3 2 3 1 2 1 3 1 3 1 3 0 3 1 3 0 3 0 3 1 0 0zm60 -59l20 0 0 0 0 4 0 4 -1 4 0 4 -1 4 -1 3 -1 4 -2 4 -2 3 -1 4 -2 3 -2 3 -3 3 -2 3 -3 3 -2 3 -3 2 -3 3 -3 2 -3 3 -3 2 -4 2 -3 1 -4 2 -3 1 -4 2 -4 1 -4 1 -4 0 -4 1 -4 0 -4 0 0 -20 3 -1 3 0 3 0 3 -1 3 0 3 -1 2 -1 3 -1 3 -1 2 -2 3 -1 2 -1 3 -2 2 -2 2 -2 2 -2 2 -2 2 -2 2 -2 1 -2 2 -3 1 -2 2 -3 1 -2 1 -3 1 -3 1 -3 0 -2 1 -3 0 -3 1 -3 0 -3 0 0zm-25 -48l13 -16 0 0 1 1 2 2 2 1 2 2 1 1 2 2 2 1 1 2 2 2 1 2 1 2 2 1 1 2 1 2 1 2 1 2 1 2 1 2 1 3 1 2 1 2 1 2 0 2 1 3 1 2 0 2 0 3 1 2 0 2 0 3 0 2 0 3 -20 0 0 -2 -1 -2 0 -2 0 -1 0 -2 0 -2 -1 -2 0 -1 -1 -2 0 -2 -1 -1 0 -2 -1 -2 -1 -1 0 -2 -1 -1 -1 -2 -1 -1 -1 -2 -1 -1 -1 -1 -1 -2 -1 -1 -1 -1 -1 -2 -1 -1 -1 -1 -2 -1 -1 -2 -1 -1 -2 -1 -1 -1 0 0zm-76 -24l12 -16 0 0 2 1 2 1 2 1 2 1 2 1 2 1 2 1 2 0 2 1 2 0 2 0 2 1 2 0 2 0 3 0 2 1 3 0 2 0 3 1 2 0 3 0 2 1 3 0 3 1 3 1 3 1 2 1 3 1 3 1 3 2 3 2 3 2 -13 16 -2 -1 -2 -1 -2 -1 -2 -1 -2 -1 -1 -1 -2 -1 -2 0 -2 -1 -3 0 -2 0 -2 -1 -2 0 -2 0 -3 -1 -2 0 -2 0 -3 0 -2 -1 -3 0 -3 0 -2 -1 -3 0 -3 -1 -2 -1 -3 -1 -3 -1 -3 -1 -3 -1 -3 -2 -3 -2 -2 -2 0 0zm-27 -52l21 0 0 0 0 1 0 1 0 2 0 1 0 1 0 2 1 1 0 1 0 2 1 1 0 1 1 1 0 2 1 1 0 1 1 1 0 1 1 1 1 2 0 1 1 1 1 1 1 1 1 1 0 1 1 1 1 1 1 1 1 0 1 1 1 1 1 1 -12 16 -2 -1 -1 -1 -2 -1 -1 -2 -2 -1 -1 -1 -1 -2 -1 -1 -2 -1 -1 -2 -1 -1 -1 -2 -1 -2 -1 -1 -1 -2 -1 -1 -1 -2 0 -2 -1 -2 -1 -1 -1 -2 0 -2 -1 -2 0 -2 -1 -2 0 -2 0 -1 -1 -2 0 -2 0 -2 0 -2 0 -2 0 0zm67 -66l0 21 0 0 -3 0 -2 0 -2 0 -3 0 -2 1 -2 1 -2 0 -2 1 -2 1 -2 1 -2 1 -2 1 -2 2 -2 1 -1 1 -2 2 -1 1 -2 2 -1 2 -1 1 -2 2 -1 2 -1 2 -1 2 0 2 -1 2 -1 2 0 3 -1 2 0 2 0 2 0 3 -21 0 0 -4 0 -3 1 -3 0 -4 1 -3 1 -3 1 -3 1 -3 1 -3 2 -3 2 -2 1 -3 2 -3 2 -2 2 -2 2 -3 3 -2 2 -2 3 -2 2 -2 3 -1 3 -2 3 -2 3 -1 3 -1 3 -1 3 -1 3 -1 3 0 4 -1 3 0 4 0 0 0z"/>
  </g>
  <ellipse class="fil3 str0" cx="232" cy="68" rx="47" ry="46"/>
  <path class="fil5" d="M260 53c0,2 0,4 1,6l-21 0 20 -6zm-3 -6c1,2 2,3 2,5l-19 5 17 -10zm-4 -5c1,1 2,2 3,4l-17 10 14 -14zm-5 -5c1,1 2,2 4,3l-14 14 10 -17zm-7 -2c2,0 4,1 5,1l-10 18 5 -19zm-6 -2c1,0 3,1 5,1l-5 19 0 -20zm-7 1c2,0 3,-1 5,-1l0 20 -5 -19zm-7 2c2,0 4,-1 5,-1l5 19 -10 -18zm-5 4c1,-1 3,-2 4,-3l10 17 -14 -14zm-5 6c1,-2 2,-3 4,-4l14 14 -18 -10zm-3 6c1,-2 2,-3 3,-5l17 10 -20 -5zm-1 7c0,-2 0,-4 1,-6l19 6 -20 0zm53 7c0,-1 0,-3 1,-5l-21 0 20 5zm-3 7c1,-2 2,-3 2,-5l-19 -5 17 10zm-4 5c1,-1 2,-2 3,-4l-17 -10 14 14zm-5 4c1,0 2,-2 4,-3l-14 -14 10 17zm-7 3c2,0 4,-1 5,-2l-10 -17 5 19zm-6 1c1,0 3,0 5,0l-5 -19 0 19zm-7 0c2,0 3,0 5,0l0 -19 -5 19zm-7 -3c2,1 4,2 5,2l5 -19 -10 17zm-5 -4c1,1 3,3 4,3l10 -17 -14 14zm-5 -5c1,2 2,3 4,4l14 -14 -18 10zm-3 -6c1,2 2,3 3,5l17 -10 -20 5zm-1 -7c0,2 0,4 1,5l19 -5 -20 0z"/>
  <ellipse class="fil3 str0" cx="233" cy="191" rx="69" ry="68"/>
  <path class="fil6" d="M262 217c3,-2 7,-2 9,0 3,3 3,7 0,9 -5,5 -11,9 -18,12 -6,3 -14,4 -21,4 -15,0 -29,-6 -39,-16 -10,-10 -16,-23 -16,-39 0,-15 6,-28 16,-38 10,-10 24,-16 39,-16 7,0 15,1 21,4 7,3 13,7 18,12 3,2 3,6 0,9 -2,2 -6,2 -9,0 -4,-4 -8,-7 -14,-9 -5,-3 -10,-4 -16,-4 -12,0 -22,5 -30,13 -8,7 -13,18 -13,29 0,12 5,23 13,30 8,8 18,13 30,13 6,0 11,-2 16,-4 6,-2 10,-5 14,-9z"/>
  <path class="fil7" d="M232 158c17,0 30,13 30,29 0,17 -13,30 -30,30 -16,0 -30,-13 -30,-30 0,-16 14,-29 30,-29z"/>
  <path class="fil8" d="M231 8c31,0 56,25 56,55 0,1 0,1 0,1 0,2 0,6 0,7 -1,2 -3,4 -6,4 -4,0 -6,-3 -6,-6 0,-2 0,-4 1,-6 0,-1 0,-3 0,-4 0,-22 -19,-40 -42,-40 -22,0 -41,18 -41,40 0,17 11,32 25,38 27,11 46,-4 80,23 9,7 16,15 21,24 9,14 15,31 15,49 0,52 -43,95 -96,95 -53,0 -95,-43 -95,-95 0,-23 8,-44 22,-60 3,-4 6,-9 12,-9 4,0 8,4 8,9 0,5 -4,7 -7,11 -10,12 -16,27 -16,43 0,38 32,69 71,69 38,0 70,-31 70,-69 0,-23 -12,-43 -29,-56 -25,-19 -51,-5 -76,-24 -14,-10 -23,-26 -23,-44 0,-30 25,-55 56,-55z"/>
  <path class="fil3" d="M77 316l-8 13 -1 0c0,-1 0,-2 0,-2 0,-1 -1,-2 -2,-3 -3,-2 -7,-3 -11,-3 -3,0 -5,0 -6,1 -3,1 -4,3 -4,5 0,2 1,3 3,4 1,1 3,1 7,2l7 3c6,1 10,3 13,6 2,3 4,6 4,11 0,4 -2,8 -4,11 -3,2 -6,4 -9,5 -3,1 -6,1 -9,1 -5,0 -9,-1 -13,-2 -2,0 -3,-1 -5,-2l-2 -1c-1,0 -2,-1 -2,-1 -1,0 -1,1 -2,2l-2 -1 8 -13 1 0c0,1 0,2 0,2 0,1 0,2 1,2 2,2 4,3 6,3 3,1 6,2 8,2 4,0 7,-1 10,-2 2,-2 3,-4 3,-6 0,-2 -1,-4 -3,-5 -1,-1 -4,-2 -8,-3l-7 -2c-5,-2 -9,-4 -12,-6 -2,-2 -3,-5 -3,-9 0,-4 1,-7 3,-10 4,-4 9,-6 17,-6 5,0 10,1 15,3 2,1 3,2 4,2 1,0 1,-1 2,-2l1 1zm35 53l-16 -32 0 28c0,1 0,1 0,2 1,0 1,0 3,1l0 1 -14 0 0 -1c1,-1 1,-1 2,-1 0,-1 0,-1 0,-2l0 -38c0,-1 0,-2 0,-2 -1,0 -1,-1 -2,-1l0 -1 18 0 0 1c-2,0 -2,1 -2,2 0,0 0,1 1,3l10 21 10 -21c1,-2 2,-3 2,-4 0,0 -1,-1 -3,-1l0 -1 19 0 0 1c-1,0 -2,1 -2,1 -1,0 -1,1 -1,2l0 38c0,1 0,1 1,2 0,0 1,0 2,1l0 1 -15 0 0 -1c1,-1 1,-1 2,-1 0,-1 0,-1 0,-2l0 -28 -15 32zm63 -11l-17 0 -2 5c0,1 0,2 0,3 0,1 1,1 2,2l0 1 -15 0 0 -1c1,-1 2,-1 2,-1 1,-1 1,-2 2,-3l13 -35c0,-1 1,-2 1,-3 0,-1 -1,-1 -1,-1 -1,-1 -1,-1 -1,-1 0,0 -1,0 -1,0l0 -1 18 0 0 1c0,0 0,0 0,0 -1,0 -1,0 -1,1 -1,0 -1,1 -1,1 0,0 0,2 1,3l13 35c0,1 1,2 1,3 1,0 1,0 2,1l0 1 -16 0 0 -1c2,-1 3,-1 3,-2 0,-1 -1,-2 -1,-3l-2 -5zm-2 -8l-6 -16 -6 16 12 0zm34 -1l0 16c0,1 0,1 0,2 1,0 1,0 2,1l0 1 -14 0 0 -1c1,-1 1,-1 2,-1 0,-1 0,-1 0,-2l0 -38c0,-1 0,-2 0,-2 -1,0 -1,-1 -2,-1l0 -1 23 0c4,0 7,0 9,1 2,1 4,3 6,5 1,2 2,4 2,7 0,6 -4,11 -10,13l7 14c1,2 2,3 2,3 1,1 2,2 3,2l0 1 -16 0 0 -1c1,0 1,0 1,-1 1,0 1,0 1,-1 0,0 0,-1 -1,-2l-7 -15 -8 0zm0 -7l10 0c5,0 8,-2 8,-6 0,-4 -3,-6 -8,-6l-10 0 0 12zm57 -12l0 35c0,1 0,1 0,2 1,0 1,0 2,1l0 1 -14 0 0 -1c1,-1 1,-1 2,-1 0,-1 0,-1 0,-2l0 -35 -11 0c-1,0 -1,1 -2,1 0,0 0,1 -1,2l-1 0 0 -13 1 0c1,1 1,2 1,2 1,0 1,1 2,1l32 0c1,0 1,0 2,-1 0,0 0,-1 1,-2l1 0 0 13 -1 0c-1,-1 -1,-2 -1,-2 -1,0 -1,-1 -2,-1l-11 0zm57 21l10 12 -1 1c-1,0 -1,-1 -2,-1 -1,0 -2,1 -4,3 -5,3 -10,4 -16,4 -7,0 -13,-2 -18,-7 -5,-6 -7,-13 -7,-22 0,-9 2,-16 7,-22 5,-5 11,-7 19,-7 4,0 8,1 12,2 1,1 2,2 4,3 1,1 2,1 3,1 1,0 1,0 2,-1l1 1 -10 13 -1 -1c0,-1 0,-1 0,-2 0,-1 0,-3 -1,-4 -3,-2 -6,-3 -10,-3 -5,0 -9,2 -11,6 -3,4 -4,8 -4,14 0,5 1,10 4,14 2,4 6,6 11,6 3,0 5,-1 7,-2 3,-2 4,-3 4,-5 0,-1 0,-2 0,-2l1 -1zm17 -28l14 0 0 1c-1,0 -1,1 -2,1 0,0 0,1 0,2l0 38c0,1 0,1 0,2 1,0 1,0 2,1l0 1 -14 0 0 -1c1,-1 1,-1 2,-1 0,-1 0,-1 0,-2l0 -38c0,-1 0,-2 0,-2 -1,0 -1,-1 -2,-1l0 -1zm43 7l0 35c0,1 0,1 1,2 0,0 1,0 2,1l0 1 -15 0 0 -1c1,-1 2,-1 2,-1 0,-1 1,-1 1,-2l0 -35 -11 0c-1,0 -2,1 -2,1 -1,0 -1,1 -1,2l-2 0 0 -13 2 0c0,1 0,2 1,2 0,0 1,1 2,1l31 0c1,0 2,0 2,-1 0,0 1,-1 1,-2l1 0 0 13 -1 0c0,-1 -1,-2 -1,-2 0,0 -1,-1 -2,-1l-11 0zm46 20l0 15c0,1 0,1 0,2 1,0 2,0 3,1l0 1 -15 0 0 -1c1,-1 1,-1 2,-1 0,-1 0,-1 0,-2l0 -15 -12 -21c-1,-2 -2,-4 -3,-4 -1,0 -1,-1 -2,-1l0 -1 16 0 0 1c-2,0 -2,1 -2,2 0,0 0,1 1,2l7 13 8 -13c1,-1 1,-2 1,-2 0,-1 -1,-2 -3,-2l0 -1 17 0 0 1c-2,0 -3,1 -3,1 -1,1 -2,2 -3,3l-12 22z"/>
 </g>
</svg>
